# xmcd CD database file
#
# Track frame offsets:
#	150
#	51705
#	103196
#	172691
#	186398
#	252425
#	280323
#	347348
#
# Disc length: 4697 seconds
#
# Revision: 0
# Processed by: cddbd v1.4PL0 Copyright (c) Steve Scherf et al.
# Submitted via: CDex 1.50
#
DISCID=76125708
DTITLE=Francis Dhomont - Jalons
DYEAR=2001
DGENRE=Jazz
TTITLE0=Vol d'Arondes
TTITLE1=En cuerdas
TTITLE2=Les moirures du temps
TTITLE3=Studio de nuit
TTITLE4=Lettre de Sarajevo
TTITLE5=Un autre Printemps
TTITLE6=Drôles d'oiseaux
TTITLE7=L'électro
EXTD=YEAR: 2001
EXTT0=
EXTT1=
EXTT2=
EXTT3=
EXTT4=
EXTT5=
EXTT6=
EXTT7=
PLAYORDER=
